{
	"asset":{
		"generator":"Khronos glTF Blender I/O v3.6.27",
		"version":"2.0"
	},
	"extensionsUsed":[
		"KHR_materials_specular",
		"KHR_materials_ior",
		"KHR_materials_clearcoat"
	],
	"scene":0,
	"scenes":[
		{
			"name":"Scene",
			"nodes":[
				0,
				1,
				2,
				3,
				4,
				5,
				6,
				7,
				8,
				9,
				10,
				11,
				12,
				13,
				14,
				15,
				16
			]
		}
	],
	"nodes":[
		{
			"mesh":0,
			"name":"Cylinder.006",
			"rotation":[
				0,
				0,
				0.9996741414070129,
				0.025526298210024834
			],
			"scale":[
				1.011209487915039,
				1.0769273042678833,
				1.0253082513809204
			],
			"translation":[
				0.04277762398123741,
				0.0071760122664272785,
				0.05454693362116814
			]
		},
		{
			"mesh":1,
			"name":"Cylinder",
			"rotation":[
				0,
				0,
				-0.07780980318784714,
				0.9969683289527893
			],
			"scale":[
				0.012073446065187454,
				0.003911470528692007,
				0.012073447927832603
			],
			"translation":[
				0.04282953962683678,
				0.008630121126770973,
				0.053952813148498535
			]
		},
		{
			"mesh":2,
			"name":"Cylinder.001",
			"rotation":[
				0,
				0,
				0.9996741414070129,
				0.025526298210024834
			],
			"scale":[
				1.011209487915039,
				1.0769273042678833,
				1.0253082513809204
			],
			"translation":[
				0.04277762398123741,
				0.0071760122664272785,
				0.018440108746290207
			]
		},
		{
			"mesh":3,
			"name":"Cylinder.002",
			"rotation":[
				0,
				0,
				-0.07780980318784714,
				0.9969683289527893
			],
			"scale":[
				0.012073446065187454,
				0.003911470528692007,
				0.012073447927832603
			],
			"translation":[
				0.04282953962683678,
				0.008630121126770973,
				0.017845988273620605
			]
		},
		{
			"mesh":4,
			"name":"Cylinder.003",
			"rotation":[
				0,
				0,
				0.9996741414070129,
				0.025526298210024834
			],
			"scale":[
				1.011209487915039,
				1.0769273042678833,
				1.0253082513809204
			],
			"translation":[
				0.04277762398123741,
				0.0071760122664272785,
				-0.017666716128587723
			]
		},
		{
			"mesh":5,
			"name":"Cylinder.004",
			"rotation":[
				0,
				0,
				-0.07780980318784714,
				0.9969683289527893
			],
			"scale":[
				0.012073446065187454,
				0.003911470528692007,
				0.012073447927832603
			],
			"translation":[
				0.04282953962683678,
				0.008630121126770973,
				-0.018260836601257324
			]
		},
		{
			"mesh":6,
			"name":"Cylinder.005",
			"rotation":[
				0,
				0,
				0.9996741414070129,
				0.025526298210024834
			],
			"scale":[
				1.011209487915039,
				1.0769273042678833,
				1.0253082513809204
			],
			"translation":[
				0.04277762398123741,
				0.0071760122664272785,
				-0.05377354100346565
			]
		},
		{
			"mesh":7,
			"name":"Cylinder.009",
			"rotation":[
				0,
				0,
				-0.07780980318784714,
				0.9969683289527893
			],
			"scale":[
				0.012073446065187454,
				0.003911470528692007,
				0.012073447927832603
			],
			"translation":[
				0.04282953962683678,
				0.008630121126770973,
				-0.054367661476135254
			]
		},
		{
			"mesh":8,
			"name":"Cylinder.007",
			"rotation":[
				0,
				0,
				0.9996741414070129,
				0.025526298210024834
			],
			"scale":[
				1.011209487915039,
				1.0769273042678833,
				1.0253082513809204
			],
			"translation":[
				0.009572068229317665,
				0.01262617763131857,
				0.05454693362116814
			]
		},
		{
			"mesh":9,
			"name":"Cylinder.008",
			"rotation":[
				0,
				0,
				-0.07780980318784714,
				0.9969683289527893
			],
			"scale":[
				0.012073446065187454,
				0.003911470528692007,
				0.012073447927832603
			],
			"translation":[
				0.00962398387491703,
				0.014080286026000977,
				0.053952813148498535
			]
		},
		{
			"mesh":10,
			"name":"Cylinder.010",
			"rotation":[
				0,
				0,
				0.9996741414070129,
				0.025526298210024834
			],
			"scale":[
				1.011209487915039,
				1.0769273042678833,
				1.0253082513809204
			],
			"translation":[
				0.009572068229317665,
				0.01262617763131857,
				0.018440108746290207
			]
		},
		{
			"mesh":11,
			"name":"Cylinder.011",
			"rotation":[
				0,
				0,
				-0.07780980318784714,
				0.9969683289527893
			],
			"scale":[
				0.012073446065187454,
				0.003911470528692007,
				0.012073447927832603
			],
			"translation":[
				0.00962398387491703,
				0.014080286026000977,
				0.017845988273620605
			]
		},
		{
			"mesh":12,
			"name":"Cylinder.012",
			"rotation":[
				0,
				0,
				0.9996741414070129,
				0.025526298210024834
			],
			"scale":[
				1.011209487915039,
				1.0769273042678833,
				1.0253082513809204
			],
			"translation":[
				0.009572068229317665,
				0.01262617763131857,
				-0.017666716128587723
			]
		},
		{
			"mesh":13,
			"name":"Cylinder.013",
			"rotation":[
				0,
				0,
				-0.07780980318784714,
				0.9969683289527893
			],
			"scale":[
				0.012073446065187454,
				0.003911470528692007,
				0.012073447927832603
			],
			"translation":[
				0.00962398387491703,
				0.014080286026000977,
				-0.018260836601257324
			]
		},
		{
			"mesh":14,
			"name":"Cylinder.014",
			"rotation":[
				0,
				0,
				0.9996741414070129,
				0.025526298210024834
			],
			"scale":[
				1.011209487915039,
				1.0769273042678833,
				1.0253082513809204
			],
			"translation":[
				0.009572068229317665,
				0.01262617763131857,
				-0.05377354100346565
			]
		},
		{
			"mesh":15,
			"name":"Cylinder.015",
			"rotation":[
				0,
				0,
				-0.07780980318784714,
				0.9969683289527893
			],
			"scale":[
				0.012073446065187454,
				0.003911470528692007,
				0.012073447927832603
			],
			"translation":[
				0.00962398387491703,
				0.014080286026000977,
				-0.054367661476135254
			]
		},
		{
			"mesh":16,
			"name":"negro",
			"scale":[
				0.06499998271465302,
				0.02252349816262722,
				0.08749999105930328
			],
			"translation":[
				0.0061530000530183315,
				7.000000096013537e-06,
				0.0005183480679988861
			]
		}
	],
	"materials":[
		{
			"doubleSided":true,
			"extensions":{
				"KHR_materials_specular":{
					"specularColorFactor":[
						0.17060127332717662,
						0.17060127332717662,
						0.17060127332717662
					]
				},
				"KHR_materials_ior":{
					"ior":1.4500000476837158
				}
			},
			"name":"amarillos.001",
			"pbrMetallicRoughness":{
				"baseColorFactor":[
					0.015135482884943485,
					0.015135482884943485,
					0.015135482884943485,
					1
				],
				"metallicFactor":0.188249409198761,
				"roughnessFactor":0.1665278971195221
			}
		},
		{
			"doubleSided":true,
			"extensions":{
				"KHR_materials_clearcoat":{
					"clearcoatFactor":0.4048338234424591,
					"clearcoatRoughnessFactor":0.029999999329447746
				},
				"KHR_materials_specular":{
					"specularColorFactor":[
						0.5982125930425526,
						0.5982125930425526,
						0.5982125930425526
					]
				},
				"KHR_materials_ior":{
					"ior":1.4500000476837158
				}
			},
			"name":"chasis rosa",
			"pbrMetallicRoughness":{
				"baseColorFactor":[
					1,
					0.05154570937156677,
					0.2795124351978302,
					1
				]
			}
		}
	],
	"meshes":[
		{
			"name":"Cylinder.045",
			"primitives":[
				{
					"attributes":{
						"POSITION":0,
						"NORMAL":1,
						"TEXCOORD_0":2,
						"TEXCOORD_1":3
					},
					"indices":4,
					"material":0
				}
			]
		},
		{
			"name":"Cylinder.055",
			"primitives":[
				{
					"attributes":{
						"POSITION":5,
						"NORMAL":6,
						"TEXCOORD_0":7
					},
					"indices":8,
					"material":0
				}
			]
		},
		{
			"name":"Cylinder.062",
			"primitives":[
				{
					"attributes":{
						"POSITION":9,
						"NORMAL":10,
						"TEXCOORD_0":11,
						"TEXCOORD_1":12
					},
					"indices":4,
					"material":0
				}
			]
		},
		{
			"name":"Cylinder.063",
			"primitives":[
				{
					"attributes":{
						"POSITION":13,
						"NORMAL":14,
						"TEXCOORD_0":15
					},
					"indices":8,
					"material":0
				}
			]
		},
		{
			"name":"Cylinder.064",
			"primitives":[
				{
					"attributes":{
						"POSITION":16,
						"NORMAL":17,
						"TEXCOORD_0":18,
						"TEXCOORD_1":19
					},
					"indices":4,
					"material":0
				}
			]
		},
		{
			"name":"Cylinder.065",
			"primitives":[
				{
					"attributes":{
						"POSITION":20,
						"NORMAL":21,
						"TEXCOORD_0":22
					},
					"indices":8,
					"material":0
				}
			]
		},
		{
			"name":"Cylinder.066",
			"primitives":[
				{
					"attributes":{
						"POSITION":23,
						"NORMAL":24,
						"TEXCOORD_0":25,
						"TEXCOORD_1":26
					},
					"indices":4,
					"material":0
				}
			]
		},
		{
			"name":"Cylinder.067",
			"primitives":[
				{
					"attributes":{
						"POSITION":27,
						"NORMAL":28,
						"TEXCOORD_0":29
					},
					"indices":8,
					"material":0
				}
			]
		},
		{
			"name":"Cylinder.068",
			"primitives":[
				{
					"attributes":{
						"POSITION":30,
						"NORMAL":31,
						"TEXCOORD_0":32,
						"TEXCOORD_1":33
					},
					"indices":4,
					"material":0
				}
			]
		},
		{
			"name":"Cylinder.069",
			"primitives":[
				{
					"attributes":{
						"POSITION":34,
						"NORMAL":35,
						"TEXCOORD_0":36
					},
					"indices":8,
					"material":0
				}
			]
		},
		{
			"name":"Cylinder.070",
			"primitives":[
				{
					"attributes":{
						"POSITION":37,
						"NORMAL":38,
						"TEXCOORD_0":39,
						"TEXCOORD_1":40
					},
					"indices":4,
					"material":0
				}
			]
		},
		{
			"name":"Cylinder.071",
			"primitives":[
				{
					"attributes":{
						"POSITION":41,
						"NORMAL":42,
						"TEXCOORD_0":43
					},
					"indices":8,
					"material":0
				}
			]
		},
		{
			"name":"Cylinder.072",
			"primitives":[
				{
					"attributes":{
						"POSITION":44,
						"NORMAL":45,
						"TEXCOORD_0":46,
						"TEXCOORD_1":47
					},
					"indices":4,
					"material":0
				}
			]
		},
		{
			"name":"Cylinder.073",
			"primitives":[
				{
					"attributes":{
						"POSITION":48,
						"NORMAL":49,
						"TEXCOORD_0":50
					},
					"indices":8,
					"material":0
				}
			]
		},
		{
			"name":"Cylinder.074",
			"primitives":[
				{
					"attributes":{
						"POSITION":51,
						"NORMAL":52,
						"TEXCOORD_0":53,
						"TEXCOORD_1":54
					},
					"indices":4,
					"material":0
				}
			]
		},
		{
			"name":"Cylinder.075",
			"primitives":[
				{
					"attributes":{
						"POSITION":55,
						"NORMAL":56,
						"TEXCOORD_0":57
					},
					"indices":8,
					"material":0
				}
			]
		},
		{
			"name":"Cube.009",
			"primitives":[
				{
					"attributes":{
						"POSITION":58,
						"NORMAL":59,
						"TEXCOORD_0":60,
						"TEXCOORD_1":61
					},
					"indices":62,
					"material":1
				}
			]
		}
	],
	"accessors":[
		{
			"bufferView":0,
			"componentType":5126,
			"count":944,
			"max":[
				0.016095854341983795,
				0.0029099048115313053,
				0.015588616020977497
			],
			"min":[
				-0.015858111903071404,
				-0.0029477011412382126,
				-0.016527408733963966
			],
			"type":"VEC3"
		},
		{
			"bufferView":1,
			"componentType":5126,
			"count":944,
			"type":"VEC3"
		},
		{
			"bufferView":2,
			"componentType":5126,
			"count":944,
			"type":"VEC2"
		},
		{
			"bufferView":3,
			"componentType":5126,
			"count":944,
			"type":"VEC2"
		},
		{
			"bufferView":4,
			"componentType":5123,
			"count":3465,
			"type":"SCALAR"
		},
		{
			"bufferView":5,
			"componentType":5126,
			"count":144,
			"max":[
				1,
				0.9076864123344421,
				1
			],
			"min":[
				-1,
				-1,
				-1
			],
			"type":"VEC3"
		},
		{
			"bufferView":6,
			"componentType":5126,
			"count":144,
			"type":"VEC3"
		},
		{
			"bufferView":7,
			"componentType":5126,
			"count":144,
			"type":"VEC2"
		},
		{
			"bufferView":8,
			"componentType":5123,
			"count":564,
			"type":"SCALAR"
		},
		{
			"bufferView":9,
			"componentType":5126,
			"count":944,
			"max":[
				0.016095854341983795,
				0.0029099048115313053,
				0.015588616020977497
			],
			"min":[
				-0.015858111903071404,
				-0.0029477011412382126,
				-0.016527408733963966
			],
			"type":"VEC3"
		},
		{
			"bufferView":10,
			"componentType":5126,
			"count":944,
			"type":"VEC3"
		},
		{
			"bufferView":11,
			"componentType":5126,
			"count":944,
			"type":"VEC2"
		},
		{
			"bufferView":12,
			"componentType":5126,
			"count":944,
			"type":"VEC2"
		},
		{
			"bufferView":13,
			"componentType":5126,
			"count":144,
			"max":[
				1,
				0.9076864123344421,
				1
			],
			"min":[
				-1,
				-1,
				-1
			],
			"type":"VEC3"
		},
		{
			"bufferView":14,
			"componentType":5126,
			"count":144,
			"type":"VEC3"
		},
		{
			"bufferView":15,
			"componentType":5126,
			"count":144,
			"type":"VEC2"
		},
		{
			"bufferView":16,
			"componentType":5126,
			"count":944,
			"max":[
				0.016095854341983795,
				0.0029099048115313053,
				0.015588616020977497
			],
			"min":[
				-0.015858111903071404,
				-0.0029477011412382126,
				-0.016527408733963966
			],
			"type":"VEC3"
		},
		{
			"bufferView":17,
			"componentType":5126,
			"count":944,
			"type":"VEC3"
		},
		{
			"bufferView":18,
			"componentType":5126,
			"count":944,
			"type":"VEC2"
		},
		{
			"bufferView":19,
			"componentType":5126,
			"count":944,
			"type":"VEC2"
		},
		{
			"bufferView":20,
			"componentType":5126,
			"count":144,
			"max":[
				1,
				0.9076864123344421,
				1
			],
			"min":[
				-1,
				-1,
				-1
			],
			"type":"VEC3"
		},
		{
			"bufferView":21,
			"componentType":5126,
			"count":144,
			"type":"VEC3"
		},
		{
			"bufferView":22,
			"componentType":5126,
			"count":144,
			"type":"VEC2"
		},
		{
			"bufferView":23,
			"componentType":5126,
			"count":944,
			"max":[
				0.016095854341983795,
				0.0029099048115313053,
				0.015588616020977497
			],
			"min":[
				-0.015858111903071404,
				-0.0029477011412382126,
				-0.016527408733963966
			],
			"type":"VEC3"
		},
		{
			"bufferView":24,
			"componentType":5126,
			"count":944,
			"type":"VEC3"
		},
		{
			"bufferView":25,
			"componentType":5126,
			"count":944,
			"type":"VEC2"
		},
		{
			"bufferView":26,
			"componentType":5126,
			"count":944,
			"type":"VEC2"
		},
		{
			"bufferView":27,
			"componentType":5126,
			"count":144,
			"max":[
				1,
				0.9076864123344421,
				1
			],
			"min":[
				-1,
				-1,
				-1
			],
			"type":"VEC3"
		},
		{
			"bufferView":28,
			"componentType":5126,
			"count":144,
			"type":"VEC3"
		},
		{
			"bufferView":29,
			"componentType":5126,
			"count":144,
			"type":"VEC2"
		},
		{
			"bufferView":30,
			"componentType":5126,
			"count":944,
			"max":[
				0.016095854341983795,
				0.0029099048115313053,
				0.015588616020977497
			],
			"min":[
				-0.015858111903071404,
				-0.0029477011412382126,
				-0.016527408733963966
			],
			"type":"VEC3"
		},
		{
			"bufferView":31,
			"componentType":5126,
			"count":944,
			"type":"VEC3"
		},
		{
			"bufferView":32,
			"componentType":5126,
			"count":944,
			"type":"VEC2"
		},
		{
			"bufferView":33,
			"componentType":5126,
			"count":944,
			"type":"VEC2"
		},
		{
			"bufferView":34,
			"componentType":5126,
			"count":144,
			"max":[
				1,
				0.9076864123344421,
				1
			],
			"min":[
				-1,
				-1,
				-1
			],
			"type":"VEC3"
		},
		{
			"bufferView":35,
			"componentType":5126,
			"count":144,
			"type":"VEC3"
		},
		{
			"bufferView":36,
			"componentType":5126,
			"count":144,
			"type":"VEC2"
		},
		{
			"bufferView":37,
			"componentType":5126,
			"count":944,
			"max":[
				0.016095854341983795,
				0.0029099048115313053,
				0.015588616020977497
			],
			"min":[
				-0.015858111903071404,
				-0.0029477011412382126,
				-0.016527408733963966
			],
			"type":"VEC3"
		},
		{
			"bufferView":38,
			"componentType":5126,
			"count":944,
			"type":"VEC3"
		},
		{
			"bufferView":39,
			"componentType":5126,
			"count":944,
			"type":"VEC2"
		},
		{
			"bufferView":40,
			"componentType":5126,
			"count":944,
			"type":"VEC2"
		},
		{
			"bufferView":41,
			"componentType":5126,
			"count":144,
			"max":[
				1,
				0.9076864123344421,
				1
			],
			"min":[
				-1,
				-1,
				-1
			],
			"type":"VEC3"
		},
		{
			"bufferView":42,
			"componentType":5126,
			"count":144,
			"type":"VEC3"
		},
		{
			"bufferView":43,
			"componentType":5126,
			"count":144,
			"type":"VEC2"
		},
		{
			"bufferView":44,
			"componentType":5126,
			"count":944,
			"max":[
				0.016095854341983795,
				0.0029099048115313053,
				0.015588616020977497
			],
			"min":[
				-0.015858111903071404,
				-0.0029477011412382126,
				-0.016527408733963966
			],
			"type":"VEC3"
		},
		{
			"bufferView":45,
			"componentType":5126,
			"count":944,
			"type":"VEC3"
		},
		{
			"bufferView":46,
			"componentType":5126,
			"count":944,
			"type":"VEC2"
		},
		{
			"bufferView":47,
			"componentType":5126,
			"count":944,
			"type":"VEC2"
		},
		{
			"bufferView":48,
			"componentType":5126,
			"count":144,
			"max":[
				1,
				0.9076864123344421,
				1
			],
			"min":[
				-1,
				-1,
				-1
			],
			"type":"VEC3"
		},
		{
			"bufferView":49,
			"componentType":5126,
			"count":144,
			"type":"VEC3"
		},
		{
			"bufferView":50,
			"componentType":5126,
			"count":144,
			"type":"VEC2"
		},
		{
			"bufferView":51,
			"componentType":5126,
			"count":944,
			"max":[
				0.016095854341983795,
				0.0029099048115313053,
				0.015588616020977497
			],
			"min":[
				-0.015858111903071404,
				-0.0029477011412382126,
				-0.016527408733963966
			],
			"type":"VEC3"
		},
		{
			"bufferView":52,
			"componentType":5126,
			"count":944,
			"type":"VEC3"
		},
		{
			"bufferView":53,
			"componentType":5126,
			"count":944,
			"type":"VEC2"
		},
		{
			"bufferView":54,
			"componentType":5126,
			"count":944,
			"type":"VEC2"
		},
		{
			"bufferView":55,
			"componentType":5126,
			"count":144,
			"max":[
				1,
				0.9076864123344421,
				1
			],
			"min":[
				-1,
				-1,
				-1
			],
			"type":"VEC3"
		},
		{
			"bufferView":56,
			"componentType":5126,
			"count":144,
			"type":"VEC3"
		},
		{
			"bufferView":57,
			"componentType":5126,
			"count":144,
			"type":"VEC2"
		},
		{
			"bufferView":58,
			"componentType":5126,
			"count":25000,
			"max":[
				1.000000238418579,
				0.9522526264190674,
				1.0000001192092896
			],
			"min":[
				-1.000000238418579,
				-1.000000238418579,
				-1.0000001192092896
			],
			"type":"VEC3"
		},
		{
			"bufferView":59,
			"componentType":5126,
			"count":25000,
			"type":"VEC3"
		},
		{
			"bufferView":60,
			"componentType":5126,
			"count":25000,
			"type":"VEC2"
		},
		{
			"bufferView":61,
			"componentType":5126,
			"count":25000,
			"type":"VEC2"
		},
		{
			"bufferView":62,
			"componentType":5123,
			"count":145746,
			"type":"SCALAR"
		}
	],
	"bufferViews":[
		{
			"buffer":0,
			"byteLength":11328,
			"byteOffset":0,
			"target":34962
		},
		{
			"buffer":0,
			"byteLength":11328,
			"byteOffset":11328,
			"target":34962
		},
		{
			"buffer":0,
			"byteLength":7552,
			"byteOffset":22656,
			"target":34962
		},
		{
			"buffer":0,
			"byteLength":7552,
			"byteOffset":30208,
			"target":34962
		},
		{
			"buffer":0,
			"byteLength":6930,
			"byteOffset":37760,
			"target":34963
		},
		{
			"buffer":0,
			"byteLength":1728,
			"byteOffset":44692,
			"target":34962
		},
		{
			"buffer":0,
			"byteLength":1728,
			"byteOffset":46420,
			"target":34962
		},
		{
			"buffer":0,
			"byteLength":1152,
			"byteOffset":48148,
			"target":34962
		},
		{
			"buffer":0,
			"byteLength":1128,
			"byteOffset":49300,
			"target":34963
		},
		{
			"buffer":0,
			"byteLength":11328,
			"byteOffset":50428,
			"target":34962
		},
		{
			"buffer":0,
			"byteLength":11328,
			"byteOffset":61756,
			"target":34962
		},
		{
			"buffer":0,
			"byteLength":7552,
			"byteOffset":73084,
			"target":34962
		},
		{
			"buffer":0,
			"byteLength":7552,
			"byteOffset":80636,
			"target":34962
		},
		{
			"buffer":0,
			"byteLength":1728,
			"byteOffset":88188,
			"target":34962
		},
		{
			"buffer":0,
			"byteLength":1728,
			"byteOffset":89916,
			"target":34962
		},
		{
			"buffer":0,
			"byteLength":1152,
			"byteOffset":91644,
			"target":34962
		},
		{
			"buffer":0,
			"byteLength":11328,
			"byteOffset":92796,
			"target":34962
		},
		{
			"buffer":0,
			"byteLength":11328,
			"byteOffset":104124,
			"target":34962
		},
		{
			"buffer":0,
			"byteLength":7552,
			"byteOffset":115452,
			"target":34962
		},
		{
			"buffer":0,
			"byteLength":7552,
			"byteOffset":123004,
			"target":34962
		},
		{
			"buffer":0,
			"byteLength":1728,
			"byteOffset":130556,
			"target":34962
		},
		{
			"buffer":0,
			"byteLength":1728,
			"byteOffset":132284,
			"target":34962
		},
		{
			"buffer":0,
			"byteLength":1152,
			"byteOffset":134012,
			"target":34962
		},
		{
			"buffer":0,
			"byteLength":11328,
			"byteOffset":135164,
			"target":34962
		},
		{
			"buffer":0,
			"byteLength":11328,
			"byteOffset":146492,
			"target":34962
		},
		{
			"buffer":0,
			"byteLength":7552,
			"byteOffset":157820,
			"target":34962
		},
		{
			"buffer":0,
			"byteLength":7552,
			"byteOffset":165372,
			"target":34962
		},
		{
			"buffer":0,
			"byteLength":1728,
			"byteOffset":172924,
			"target":34962
		},
		{
			"buffer":0,
			"byteLength":1728,
			"byteOffset":174652,
			"target":34962
		},
		{
			"buffer":0,
			"byteLength":1152,
			"byteOffset":176380,
			"target":34962
		},
		{
			"buffer":0,
			"byteLength":11328,
			"byteOffset":177532,
			"target":34962
		},
		{
			"buffer":0,
			"byteLength":11328,
			"byteOffset":188860,
			"target":34962
		},
		{
			"buffer":0,
			"byteLength":7552,
			"byteOffset":200188,
			"target":34962
		},
		{
			"buffer":0,
			"byteLength":7552,
			"byteOffset":207740,
			"target":34962
		},
		{
			"buffer":0,
			"byteLength":1728,
			"byteOffset":215292,
			"target":34962
		},
		{
			"buffer":0,
			"byteLength":1728,
			"byteOffset":217020,
			"target":34962
		},
		{
			"buffer":0,
			"byteLength":1152,
			"byteOffset":218748,
			"target":34962
		},
		{
			"buffer":0,
			"byteLength":11328,
			"byteOffset":219900,
			"target":34962
		},
		{
			"buffer":0,
			"byteLength":11328,
			"byteOffset":231228,
			"target":34962
		},
		{
			"buffer":0,
			"byteLength":7552,
			"byteOffset":242556,
			"target":34962
		},
		{
			"buffer":0,
			"byteLength":7552,
			"byteOffset":250108,
			"target":34962
		},
		{
			"buffer":0,
			"byteLength":1728,
			"byteOffset":257660,
			"target":34962
		},
		{
			"buffer":0,
			"byteLength":1728,
			"byteOffset":259388,
			"target":34962
		},
		{
			"buffer":0,
			"byteLength":1152,
			"byteOffset":261116,
			"target":34962
		},
		{
			"buffer":0,
			"byteLength":11328,
			"byteOffset":262268,
			"target":34962
		},
		{
			"buffer":0,
			"byteLength":11328,
			"byteOffset":273596,
			"target":34962
		},
		{
			"buffer":0,
			"byteLength":7552,
			"byteOffset":284924,
			"target":34962
		},
		{
			"buffer":0,
			"byteLength":7552,
			"byteOffset":292476,
			"target":34962
		},
		{
			"buffer":0,
			"byteLength":1728,
			"byteOffset":300028,
			"target":34962
		},
		{
			"buffer":0,
			"byteLength":1728,
			"byteOffset":301756,
			"target":34962
		},
		{
			"buffer":0,
			"byteLength":1152,
			"byteOffset":303484,
			"target":34962
		},
		{
			"buffer":0,
			"byteLength":11328,
			"byteOffset":304636,
			"target":34962
		},
		{
			"buffer":0,
			"byteLength":11328,
			"byteOffset":315964,
			"target":34962
		},
		{
			"buffer":0,
			"byteLength":7552,
			"byteOffset":327292,
			"target":34962
		},
		{
			"buffer":0,
			"byteLength":7552,
			"byteOffset":334844,
			"target":34962
		},
		{
			"buffer":0,
			"byteLength":1728,
			"byteOffset":342396,
			"target":34962
		},
		{
			"buffer":0,
			"byteLength":1728,
			"byteOffset":344124,
			"target":34962
		},
		{
			"buffer":0,
			"byteLength":1152,
			"byteOffset":345852,
			"target":34962
		},
		{
			"buffer":0,
			"byteLength":300000,
			"byteOffset":347004,
			"target":34962
		},
		{
			"buffer":0,
			"byteLength":300000,
			"byteOffset":647004,
			"target":34962
		},
		{
			"buffer":0,
			"byteLength":200000,
			"byteOffset":947004,
			"target":34962
		},
		{
			"buffer":0,
			"byteLength":200000,
			"byteOffset":1147004,
			"target":34962
		},
		{
			"buffer":0,
			"byteLength":291492,
			"byteOffset":1347004,
			"target":34963
		}
	],
	"buffers":[
		{
			"byteLength":1638496,
			"uri":"beato2.bin"
		}
	]
}
